<svg width="48" height="48" viewBox="0 0 48 48" fill="none" xmlns="http://www.w3.org/2000/svg">
<path d="M28 19.072V14C28 11.8783 28.8429 9.84344 30.3431 8.34315C31.8434 6.84285 33.8783 6 36 6H39C39.2652 6 39.5196 6.10536 39.7071 6.29289C39.8946 6.48043 40 6.73478 40 7V10C40 12.1217 39.1571 14.1566 37.6569 15.6569C36.1566 17.1571 34.1217 18 32 18C29.8783 18 27.8434 18.8429 26.3431 20.3431C24.8429 21.8434 24 23.8783 24 26C24 30 26 32 26 36C26 38.1637 25.2982 40.269 24 42" stroke="#00D492" stroke-width="3" stroke-linecap="round" stroke-linejoin="round"/>
<path d="M8 18C9.4857 16.8857 11.2523 16.2072 13.1019 16.0404C14.9516 15.8736 16.8111 16.2252 18.4721 17.0557C20.1332 17.8863 21.5302 19.1629 22.5065 20.7427C23.4829 22.3225 24 24.1429 24 26C22.5143 27.1143 20.7477 27.7928 18.8981 27.9596C17.0484 28.1264 15.1889 27.7748 13.5279 26.9443C11.8668 26.1137 10.4698 24.8371 9.49349 23.2573C8.51715 21.6776 8 19.8571 8 18Z" stroke="#00D492" stroke-width="3" stroke-linecap="round" stroke-linejoin="round"/>
<path d="M10 42H38" stroke="#00D492" stroke-width="3" stroke-linecap="round" stroke-linejoin="round"/>
</svg>
