<svg width="48" height="48" viewBox="0 0 48 48" fill="none" xmlns="http://www.w3.org/2000/svg">
<path d="M20 24H28" stroke="#00D492" stroke-width="3" stroke-linecap="round" stroke-linejoin="round"/>
<path d="M20 16H28" stroke="#00D492" stroke-width="3" stroke-linecap="round" stroke-linejoin="round"/>
<path d="M28 42V36C28 34.9391 27.5786 33.9217 26.8284 33.1716C26.0783 32.4214 25.0609 32 24 32C22.9391 32 21.9217 32.4214 21.1716 33.1716C20.4214 33.9217 20 34.9391 20 36V42" stroke="#00D492" stroke-width="3" stroke-linecap="round" stroke-linejoin="round"/>
<path d="M12 20H8C6.93913 20 5.92172 20.4214 5.17157 21.1716C4.42143 21.9217 4 22.9391 4 24V38C4 39.0609 4.42143 40.0783 5.17157 40.8284C5.92172 41.5786 6.93913 42 8 42H40C41.0609 42 42.0783 41.5786 42.8284 40.8284C43.5786 40.0783 44 39.0609 44 38V18C44 16.9391 43.5786 15.9217 42.8284 15.1716C42.0783 14.4214 41.0609 14 40 14H36" stroke="#00D492" stroke-width="3" stroke-linecap="round" stroke-linejoin="round"/>
<path d="M12 42V10C12 8.93913 12.4214 7.92172 13.1716 7.17157C13.9217 6.42143 14.9391 6 16 6H32C33.0609 6 34.0783 6.42143 34.8284 7.17157C35.5786 7.92172 36 8.93913 36 10V42" stroke="#00D492" stroke-width="3" stroke-linecap="round" stroke-linejoin="round"/>
</svg>
