<svg width="48" height="48" viewBox="0 0 48 48" fill="none" xmlns="http://www.w3.org/2000/svg">
<path d="M14 32.6001C18.4 32.6001 22 28.9401 22 24.5001C22 22.1801 20.86 19.9801 18.58 18.1201C16.3 16.2601 14.58 13.5001 14 10.6001C13.42 13.5001 11.72 16.2801 9.42 18.1201C7.12 19.9601 6 22.2001 6 24.5001C6 28.9401 9.6 32.6001 14 32.6001Z" stroke="#00D492" stroke-width="3" stroke-linecap="round" stroke-linejoin="round"/>
<path d="M25.1199 13.2C26.4954 11.0023 27.4705 8.57813 27.9999 6.04004C28.9999 11.04 31.9999 15.84 35.9999 19.04C39.9999 22.24 41.9999 26.04 41.9999 30.04C42.0114 32.8046 41.2017 35.5103 39.6735 37.8142C38.1454 40.1181 35.9676 41.9163 33.4162 42.981C30.8648 44.0457 28.0548 44.3289 25.3423 43.7946C22.6298 43.2603 20.137 41.9327 18.1799 39.98" stroke="#00D492" stroke-width="3" stroke-linecap="round" stroke-linejoin="round"/>
</svg>
