<svg width="48" height="48" viewBox="0 0 48 48" fill="none" xmlns="http://www.w3.org/2000/svg">
<path d="M30.0001 24L11.2541 42.746C10.8601 43.1401 10.3924 43.4527 9.87763 43.6661C9.36283 43.8794 8.81106 43.9893 8.25382 43.9893C7.12841 43.9895 6.04903 43.5427 5.25311 42.747C4.4572 41.9514 4.00995 40.8721 4.00977 39.7467C4.00958 38.6213 4.45646 37.5419 5.25211 36.746L24.0001 18" stroke="#00D492" stroke-width="3" stroke-linecap="round" stroke-linejoin="round"/>
<path d="M36 30L44 22" stroke="#00D492" stroke-width="3" stroke-linecap="round" stroke-linejoin="round"/>
<path d="M43 23L39.172 19.172C38.4218 18.422 38.0002 17.4048 38 16.344V15.656C37.9998 14.5952 37.5782 13.578 36.828 12.828L33.514 9.514C31.2642 7.26463 28.2134 6.00068 25.032 6H18L20.486 8.486C22.7359 10.7362 23.9999 13.7879 24 16.97V20L28 24H30.344C31.4048 24.0002 32.422 24.4218 33.172 25.172L37 29" stroke="#00D492" stroke-width="3" stroke-linecap="round" stroke-linejoin="round"/>
</svg>
