<svg width="40" height="40" viewBox="0 0 40 40" fill="none" xmlns="http://www.w3.org/2000/svg">
<path d="M35.5002 25.4999C35.8731 25.8715 36.1689 26.3131 36.3708 26.7993C36.5727 27.2855 36.6766 27.8068 36.6766 28.3332C36.6766 28.8597 36.5727 29.381 36.3708 29.8672C36.1689 30.3534 35.8731 30.795 35.5002 31.1666L31.1668 35.4999C30.7952 35.8728 30.3536 36.1687 29.8674 36.3706C29.3812 36.5725 28.8599 36.6764 28.3335 36.6764C27.807 36.6764 27.2858 36.5725 26.7995 36.3706C26.3133 36.1687 25.8718 35.8728 25.5002 35.4999L4.50016 14.4999C3.75109 13.7472 3.33057 12.7285 3.33057 11.6666C3.33057 10.6047 3.75109 9.58595 4.50016 8.83325L8.83349 4.49991C9.5862 3.75084 10.6049 3.33032 11.6668 3.33032C12.7287 3.33032 13.7475 3.75084 14.5002 4.49991L35.5002 25.4999Z" stroke="#4E8A36" stroke-width="2.5" stroke-linecap="round" stroke-linejoin="round"/>
<path d="M24.1665 20.8333L27.4998 17.5" stroke="#4E8A36" stroke-width="2.5" stroke-linecap="round" stroke-linejoin="round"/>
<path d="M19.1665 15.8333L22.4998 12.5" stroke="#4E8A36" stroke-width="2.5" stroke-linecap="round" stroke-linejoin="round"/>
<path d="M14.1665 10.8333L17.4998 7.5" stroke="#4E8A36" stroke-width="2.5" stroke-linecap="round" stroke-linejoin="round"/>
<path d="M29.1665 25.8333L32.4998 22.5" stroke="#4E8A36" stroke-width="2.5" stroke-linecap="round" stroke-linejoin="round"/>
</svg>
