<svg width="40" height="40" viewBox="0 0 40 40" fill="none" xmlns="http://www.w3.org/2000/svg">
<path d="M18.3334 33.3333C15.4068 33.3421 12.5838 32.2508 10.4242 30.2756C8.26468 28.3005 6.92632 25.5858 6.67461 22.6701C6.42289 19.7544 7.2762 16.8505 9.0653 14.5345C10.8544 12.2185 13.4486 10.6594 16.3334 10.1666C25.8334 8.33325 28.3334 7.46659 31.6667 3.33325C33.3334 6.66659 35 10.2999 35 16.6666C35 25.8333 27.0334 33.3333 18.3334 33.3333Z" stroke="#2D6A4F" stroke-width="2.5" stroke-linecap="round" stroke-linejoin="round"/>
<path d="M3.33325 35C3.33325 30 6.41659 26.0667 11.7999 25C15.8333 24.2 19.9999 21.6667 21.6666 20" stroke="#2D6A4F" stroke-width="2.5" stroke-linecap="round" stroke-linejoin="round"/>
</svg>
