<svg width="40" height="40" viewBox="0 0 40 40" fill="none" xmlns="http://www.w3.org/2000/svg">
<path d="M16.6667 20H23.3334" stroke="#4E8A36" stroke-width="2.5" stroke-linecap="round" stroke-linejoin="round"/>
<path d="M16.6667 13.3333H23.3334" stroke="#4E8A36" stroke-width="2.5" stroke-linecap="round" stroke-linejoin="round"/>
<path d="M23.3334 35.0001V30.0001C23.3334 29.116 22.9822 28.2682 22.3571 27.6431C21.732 27.0179 20.8841 26.6667 20.0001 26.6667C19.116 26.6667 18.2682 27.0179 17.6431 27.6431C17.0179 28.2682 16.6667 29.116 16.6667 30.0001V35.0001" stroke="#4E8A36" stroke-width="2.5" stroke-linecap="round" stroke-linejoin="round"/>
<path d="M9.99992 16.6667H6.66659C5.78253 16.6667 4.93468 17.0179 4.30956 17.6431C3.68444 18.2682 3.33325 19.116 3.33325 20.0001V31.6667C3.33325 32.5508 3.68444 33.3986 4.30956 34.0238C4.93468 34.6489 5.78253 35.0001 6.66659 35.0001H33.3333C34.2173 35.0001 35.0652 34.6489 35.6903 34.0238C36.3154 33.3986 36.6666 32.5508 36.6666 31.6667V15.0001C36.6666 14.116 36.3154 13.2682 35.6903 12.6431C35.0652 12.0179 34.2173 11.6667 33.3333 11.6667H29.9999" stroke="#4E8A36" stroke-width="2.5" stroke-linecap="round" stroke-linejoin="round"/>
<path d="M10 35V8.33333C10 7.44928 10.3512 6.60143 10.9763 5.97631C11.6014 5.35119 12.4493 5 13.3333 5H26.6667C27.5507 5 28.3986 5.35119 29.0237 5.97631C29.6488 6.60143 30 7.44928 30 8.33333V35" stroke="#4E8A36" stroke-width="2.5" stroke-linecap="round" stroke-linejoin="round"/>
</svg>
