<svg width="184" height="184" viewBox="0 0 184 184" fill="none" xmlns="http://www.w3.org/2000/svg">
<path d="M94.1883 80.1266L137.167 44.624L102.828 89.0594L157.259 91.0527C162.418 87.7914 166.738 84.5016 169.843 81.2918C187.83 62.6951 187.83 32.5441 169.843 13.9475C151.856 -4.64916 122.693 -4.64916 104.707 13.9475C100.724 18.0655 96.5803 24.2967 92.5311 31.8188L94.1883 80.1209V80.1266Z" fill="white"/>
<path d="M26.0746 91.059L80.5049 89.0657L46.1664 44.6302L89.1449 80.1329L90.8022 31.8308C86.7529 24.3145 82.6097 18.0775 78.6267 13.9595C60.6398 -4.63709 31.4772 -4.63709 13.4902 13.9595C-4.49674 32.5562 -4.49674 62.7072 13.4902 81.3038C16.5948 84.5137 20.915 87.8035 26.0746 91.0647V91.059Z" fill="white"/>
<path d="M89.1505 103.206L46.1717 138.709L80.5105 94.2735L26.0799 92.2802C20.9203 95.5415 16.6004 98.8313 13.4958 102.041C-4.49114 120.638 -4.49114 150.789 13.4958 169.385C31.4828 187.982 60.6454 187.982 78.6323 169.385C82.6153 165.267 86.7585 159.036 90.8078 151.52L89.1505 103.218V103.206Z" fill="white"/>
<path d="M157.259 92.2748L102.828 94.2681L137.167 138.704L94.1883 103.201L92.5311 151.503C96.5803 159.019 100.724 165.256 104.707 169.374C122.693 187.971 151.856 187.971 169.843 169.374C187.83 150.778 187.83 120.627 169.843 102.03C166.738 98.8201 162.418 95.5303 157.259 92.269V92.2748Z" fill="white"/>
</svg>
