<svg width="200" height="200" viewBox="0 0 200 200" fill="none" xmlns="http://www.w3.org/2000/svg">
<path d="M194.372 5.62788C179.969 -8.78066 141.309 5.39107 100.001 37.7056C58.6874 5.39107 20.0332 -8.78066 5.62444 5.62788C-8.77829 20.0364 5.39368 58.69 37.7027 100.003C5.39368 141.31 -8.77829 179.963 5.62444 194.372C20.0332 208.781 58.6874 194.609 100.001 162.3C141.309 194.609 179.969 208.781 194.372 194.372C208.781 179.963 194.609 141.31 162.3 100.003C194.609 58.69 208.781 20.0364 194.372 5.62788ZM134.903 100.003L108.903 103.288C120.033 109.439 137.156 122.19 149.057 134.09C165.506 150.545 163.144 154.947 158.972 159.125C154.795 163.296 150.393 165.658 133.938 149.209C122.109 137.375 109.437 120.35 103.25 109.226L100.001 134.898L96.7344 109.105C90.541 120.222 77.881 137.236 66.0589 149.058C49.6099 165.506 45.2016 163.144 41.0301 158.973C36.8526 154.796 34.4906 150.393 50.9457 133.939C62.7678 122.117 79.7451 109.451 90.875 103.264L65.0994 100.003L90.7778 96.7485C79.6601 90.5673 62.6221 77.8953 50.7939 66.0612C34.3388 49.6125 36.7008 45.2044 40.8783 41.033C45.0498 36.8555 49.4581 34.4936 65.9071 50.9483C77.8081 62.8431 90.5653 79.9658 96.7102 91.0895L100.001 65.1019L103.274 90.968C109.419 79.8383 122.182 62.7035 134.089 50.7905C150.544 34.3418 154.947 36.7037 159.124 40.8812C163.296 45.0526 165.664 49.4607 149.208 65.9094C137.301 77.8164 120.124 90.5794 109 96.7242L134.903 100.003ZM103.274 90.968C101.695 93.8279 100.554 96.2931 99.9769 98.1632C99.3819 96.2991 98.2525 93.8886 96.7102 91.0895L96.0787 96.0805L90.7778 96.7485C93.5042 98.2664 95.8722 99.3897 97.7242 100.021C95.8783 100.659 93.5467 101.776 90.875 103.264L96.0787 103.919L96.7344 109.105C98.2221 106.433 99.3333 104.108 99.9769 102.268C100.602 104.12 101.732 106.494 103.25 109.226L103.924 103.919L108.903 103.288C106.11 101.74 103.687 100.616 101.829 100.021C103.693 99.4444 106.146 98.3029 109 96.7242L103.924 96.0805L103.274 90.968Z" fill="white"/>
</svg>
