<svg width="184" height="184" viewBox="0 0 184 184" fill="none" xmlns="http://www.w3.org/2000/svg">
<path d="M55.1644 73.2479C49.5985 45.2902 50.7839 22.0746 58.5763 12.5457C34.4256 -0.512076 14.3769 -4.05758 5.15971 5.15964C-7.49727 17.811 3.90198 50.8784 30.9414 86.9346C37.8153 82.2036 45.9917 77.5616 55.1644 73.2479Z" fill="white"/>
<path d="M12.5457 124.756C-0.512071 148.907 -4.06316 168.955 5.15962 178.178C17.811 190.829 50.8783 179.43 86.9346 152.391C82.2035 145.522 77.5616 137.34 73.248 128.173C45.2846 133.739 22.069 132.548 12.5457 124.756Z" fill="white"/>
<path d="M128.173 110.088C133.739 138.046 132.548 161.256 124.755 170.785C148.906 183.843 168.955 187.394 178.177 178.177C190.829 165.52 179.43 132.458 152.39 96.3962C145.522 101.133 137.34 105.775 128.173 110.088Z" fill="white"/>
<path d="M170.786 58.5759C183.844 34.4252 187.395 14.3767 178.177 5.15944C165.52 -7.49754 132.458 3.90156 96.3967 30.941C101.128 37.8149 105.77 45.9913 110.084 55.164C138.047 49.598 161.257 50.7836 170.786 58.5759Z" fill="white"/>
<path d="M150.103 73.0747L95.1668 84.9023L73.0755 33.2281L84.9032 88.164L33.229 110.255L88.165 98.4276L110.256 150.102L98.4286 95.166L150.103 73.0747Z" fill="white"/>
</svg>
