<svg width="31" height="43" viewBox="0 0 31 43" fill="none" xmlns="http://www.w3.org/2000/svg">
<path fill-rule="evenodd" clip-rule="evenodd" d="M3.86364 18.1666C1.90812 18.1666 1.5 18.5504 1.5 20.3888V23.7222C1.5 25.5608 1.90812 25.9444 3.86364 25.9444H8.5909V39.2778C8.5909 41.1162 8.99902 41.5 10.9545 41.5H15.6818C17.6374 41.5 18.0454 41.1162 18.0454 39.2778V25.9444H23.3534C24.8366 25.9444 25.2188 25.6734 25.6262 24.3328L26.6392 20.9994C27.337 18.7028 26.907 18.1666 24.3664 18.1666H18.0454V12.6111C18.0454 11.3838 19.1036 10.3889 20.409 10.3889H27.1364C29.0918 10.3889 29.5 10.0052 29.5 8.16666V3.72222C29.5 1.8837 29.0918 1.5 27.1364 1.5H20.409C13.882 1.5 8.5909 6.47462 8.5909 12.6111V18.1666H3.86364Z" stroke="white" stroke-opacity="0.6" stroke-width="3" stroke-linejoin="round"/>
</svg>
