<svg width="32" height="32" viewBox="0 0 32 32" fill="none" xmlns="http://www.w3.org/2000/svg">
<path d="M17.784 0.693023C17.2943 0.24687 16.6588 0 16 0C15.3412 0 14.7057 0.24687 14.216 0.693023L0 13.6445V27.6811C0 28.8265 0.449523 29.925 1.24968 30.735C2.04983 31.545 3.13508 32 4.26667 32H27.7333C28.8649 32 29.9502 31.545 30.7503 30.735C31.5505 29.925 32 28.8265 32 27.6811V13.6445L17.784 0.693023ZM20 29.2966H12V22.5132C12 21.4393 12.4214 20.4094 13.1716 19.6501C13.9217 18.8907 14.9391 18.4641 16 18.4641C17.0609 18.4641 18.0783 18.8907 18.8284 19.6501C19.5786 20.4094 20 21.4393 20 22.5132V29.2966ZM29.3333 27.677C29.3333 28.1065 29.1648 28.5185 28.8647 28.8222C28.5646 29.126 28.1577 29.2966 27.7333 29.2966H22.6667V22.5132C22.6667 20.7234 21.9643 19.0069 20.714 17.7414C19.4638 16.4758 17.7681 15.7648 16 15.7648C14.2319 15.7648 12.5362 16.4758 11.286 17.7414C10.0357 19.0069 9.33333 20.7234 9.33333 22.5132V29.2966H4.26667C3.84232 29.2966 3.43535 29.126 3.1353 28.8222C2.83524 28.5185 2.66667 28.1065 2.66667 27.677V14.8457L16 2.69863L29.3333 14.8457V27.677Z" fill="white"/>
</svg>
