<svg width="48" height="48" viewBox="0 0 48 48" fill="none" xmlns="http://www.w3.org/2000/svg">
<path d="M9 19H8C6.11438 19 5.17158 19 4.58578 19.5858C4 20.1716 4 21.1144 4 23V40C4 41.8856 4 42.8284 4.58578 43.4142C5.17158 44 6.11438 44 8 44H9C10.8856 44 11.8284 44 12.4142 43.4142C13 42.8284 13 41.8856 13 40V23C13 21.1144 13 20.1716 12.4142 19.5858C11.8284 19 10.8856 19 9 19Z" stroke="white" stroke-opacity="0.6" stroke-width="3"/>
<path d="M13 8.5C13 10.9853 10.9853 13 8.5 13C6.01472 13 4 10.9853 4 8.5C4 6.01472 6.01472 4 8.5 4C10.9853 4 13 6.01472 13 8.5Z" stroke="white" stroke-opacity="0.6" stroke-width="3"/>
<path d="M24.652 19H23C21.1144 19 20.1716 19 19.5858 19.5858C19 20.1716 19 21.1144 19 23V40C19 41.8856 19 42.8284 19.5858 43.4142C20.1716 44 21.1144 44 23 44H24C25.8856 44 26.8284 44 27.4142 43.4142C28 42.8284 28 41.8856 28 40L28.0002 33.0002C28.0002 29.6866 29.0562 27.0002 32.1758 27.0002C33.7354 27.0002 35 28.3434 35 30.0002V39.0002C35 40.8858 35 41.8286 35.5858 42.4144C36.1714 43.0002 37.1144 43.0002 39 43.0002H39.9974C41.8826 43.0002 42.8252 43.0002 43.411 42.4146C43.9968 41.829 43.997 40.8864 43.9974 39.0012L44.0002 28.0004C44.0002 23.03 39.2728 19.0005 34.5936 19.0005C31.9298 19.0005 29.5534 20.3062 28.0002 22.348C28 21.0878 28 20.4578 27.7264 19.99C27.553 19.6937 27.3062 19.4471 27.01 19.2737C26.5422 19 25.9122 19 24.652 19Z" stroke="white" stroke-opacity="0.6" stroke-width="3" stroke-linejoin="round"/>
</svg>
