<svg width="43" height="43" viewBox="0 0 43 43" fill="none" xmlns="http://www.w3.org/2000/svg">
<path d="M21.5001 41.5C32.5457 41.5 41.5001 32.5456 41.5001 21.5C41.5001 10.4543 32.5457 1.5 21.5001 1.5C10.4544 1.5 1.50006 10.4543 1.50006 21.5C1.50006 24.2578 2.0582 26.8852 3.0677 29.2754C3.62562 30.5962 3.90458 31.2568 3.93912 31.756C3.97366 32.2552 3.82674 32.8042 3.5329 33.9024L1.50006 41.5L9.0976 39.4672C10.1958 39.1734 10.7449 39.0264 11.2441 39.061C11.7433 39.0954 12.4038 39.3744 13.7248 39.9324C16.115 40.9418 18.7423 41.5 21.5001 41.5Z" stroke="white" stroke-width="3" stroke-linejoin="round"/>
<path d="M14.6764 22.2546L16.4182 20.0912C17.1524 19.1794 18.0599 18.3306 18.1311 17.1165C18.1489 16.8099 17.9333 15.4331 17.5017 12.6797C17.3321 11.5976 16.3218 11.5 15.4467 11.5C14.3063 11.5 13.7362 11.5 13.17 11.7586C12.4543 12.0855 11.7196 13.0046 11.5584 13.7747C11.4308 14.3839 11.5256 14.8037 11.7152 15.6434C12.5205 19.2096 14.4097 22.7316 17.339 25.661C20.2685 28.5904 23.7905 30.4796 27.3567 31.2848C28.1963 31.4744 28.6161 31.5692 29.2255 31.4416C29.9955 31.2804 30.9145 30.5458 31.2415 29.83C31.5001 29.2638 31.5001 28.6938 31.5001 27.5534C31.5001 26.6782 31.4025 25.668 30.3203 25.4984C27.5669 25.0668 26.1903 24.8512 25.8835 24.869C24.6695 24.9402 23.8207 25.8476 22.9089 26.5818L20.7455 28.3236" stroke="white" stroke-width="3"/>
</svg>
