<?xml version="1.0" encoding="UTF-8"?>
<svg id="Capa_2" data-name="Capa 2" xmlns="http://www.w3.org/2000/svg" viewBox="0 0 458.44 460.18">
  <defs>
    <style>
      .cls-1 {
        fill: #fdfdfd;
      }
    </style>
  </defs>
  <g id="Capa_1-2" data-name="Capa 1">
    <g>
      <path class="cls-1" d="M373.64,227.47S411.05,11.87,192.83,0C192.83,0,14.38-1.77.28,192.13c-.81,11.12.06,43.85,3.18,57.66,10.14,45.01,44.79,146.37,156.11,193.28,0,0-118.46-61.32-95.6-221.53,0,0,28.9-152.46,180.81-134.5,0,0,113.1,13.46,128.85,140.44Z"/>
      <path class="cls-1" d="M85.74,226.47s-45.74,214.14,171.87,233.66c0,0,178.26,8.03,199.86-185.23,1.24-11.09,1.63-43.82-.94-57.73-8.39-45.34-39.09-147.84-148.52-198.63,0,0,118.87,81.57,86.95,224.74,0,0-34.79,151.34-185.9,128.06,0,0-112.5-17.42-123.32-144.86Z"/>
    </g>
  </g>
</svg>