<svg width="40" height="40" viewBox="0 0 40 40" fill="none" xmlns="http://www.w3.org/2000/svg">
<path d="M11.6665 33.3335H28.3332" stroke="white" stroke-width="3.33333" stroke-linecap="round" stroke-linejoin="round"/>
<path d="M16.6665 33.3332C25.8332 29.1665 17.9998 22.6665 21.6665 16.6665" stroke="white" stroke-width="3.33333" stroke-linecap="round" stroke-linejoin="round"/>
<path d="M15.8332 15.667C17.6665 17.0003 18.8332 19.3337 19.6665 21.8337C16.3332 22.5003 13.8332 22.5003 11.6665 21.3337C9.6665 20.3337 7.83317 18.167 6.6665 14.3337C11.3332 13.5003 13.9998 14.3337 15.8332 15.667Z" stroke="white" stroke-width="3.33333" stroke-linecap="round" stroke-linejoin="round"/>
<path d="M23.5001 9.99984C22.2294 11.9858 21.5903 14.3101 21.6668 16.6665C24.8335 16.4998 27.1668 15.6665 28.8335 14.3332C30.5001 12.6665 31.5001 10.4998 31.6668 6.6665C27.1668 6.83317 25.0001 8.33317 23.5001 9.99984Z" stroke="white" stroke-width="3.33333" stroke-linecap="round" stroke-linejoin="round"/>
</svg>
